<?xml version="1.0" encoding="UTF-8"?><svg id="b" xmlns="http://www.w3.org/2000/svg" viewBox="0 0 21.004 21.0054"><defs><style>.d{fill:#fff;}</style></defs><g id="c"><path class="d" d="M12.363,9.4744l-.521,.625c-.8844,1.0596-.7423,2.6355,.3173,3.5198,.1103,.092,.2283,.1744,.3527,.2462l.285,.164c.3374-.591,.773-1.1202,1.288-1.565l-.573-.33c-.2393-.1378-.3215-.4435-.1837-.6828,.0145-.0251,.0311-.0489,.0497-.0712l.52-.624c1.0737-1.2107,1.7192-2.7411,1.837-4.355,.0491-.8402-.049-1.6826-.29-2.489-.5012-1.5344-1.6355-2.7808-3.116-3.424C10.0672-.5062,7.4231,.0495,5.753,1.8704c-.5356,.5915-.941,1.2889-1.19,2.047-.2411,.8067-.3393,1.6494-.29,2.49,.1181,1.614,.764,3.1444,1.838,4.355l.518,.622c.1768,.2122,.1481,.5274-.0641,.7042-.0219,.0182-.0453,.0346-.0699,.0488l-3.995,2.307C.953,15.3376,0,16.9881,0,18.7744v2.231H13.54c-.5238-.5823-.9281-1.2618-1.19-2H2v-.23c-.0007-1.0725,.5712-2.0638,1.5-2.6l3.995-2.308c1.1957-.6904,1.6053-2.2194,.9149-3.4151-.0715-.1237-.1534-.2411-.2449-.3509l-.521-.625c-1.2302-1.318-1.6809-3.1837-1.188-4.918,.1602-.4936,.4222-.948,.769-1.334,1.4068-1.5342,3.7909-1.6376,5.3252-.2308,.0802,.0736,.1573,.1506,.2308,.2308,.346,.386,.608,.84,.768,1.334,.157,.562,.22,1.146,.187,1.728-.0928,1.1852-.5756,2.3063-1.373,3.188Zm7.641-1.173c-.5523,0-1,.4477-1,1v4.666h-1c-1.6569,0-3,1.3431-3,3s1.3431,3,3,3,3-1.3431,3-3v-7.666c.0006-.5517-.4463-.9995-.998-1h-.002Zm-1,8.666c0,.5523-.4477,1-1,1s-1-.4477-1-1,.4477-1,1-1h1v1Z"/></g></svg>