<?xml version="1.0" encoding="UTF-8"?><svg id="b" xmlns="http://www.w3.org/2000/svg" viewBox="0 0 14 15"><defs><style>.d{fill:#040000;}</style></defs><g id="c"><path class="d" d="M0,1.75c0-.4142,.3358-.75,.75-.75H6v1.5H1.5V13.5H11.719v-5.5h1.5v6.25c0,.4142-.3358,.75-.75,.75H.75c-.4142,0-.75-.3358-.75-.75V1.75Z"/><path class="d" d="M14,0V4.993c0,.4142-.3358,.75-.75,.75s-.75-.3358-.75-.75V2.56L7.78,7.28c-.303,.2824-.7776,.2656-1.06-.0374-.2684-.288-.2684-.7346,0-1.0226L11.44,1.5h-2.433c-.4142,0-.75-.3358-.75-.75s.3358-.75,.75-.75h4.993Z"/></g></svg>