<?xml version="1.0" encoding="UTF-8"?><svg id="b" xmlns="http://www.w3.org/2000/svg" viewBox="0 0 1920 170"><defs><style>.d{fill:none;}.e{fill:#fff; opacity: .8}</style></defs><g id="c"><rect class="d" width="1920" height="170"/><rect class="e" x="6" y="156" width="8" height="8"/><rect class="e" x="1906" y="156" width="8" height="8"/><rect class="e" x="46" y="156" width="8" height="8"/><rect class="e" x="106" y="156" width="8" height="8"/><rect class="e" x="166" y="156" width="8" height="8"/><rect class="e" x="226" y="156" width="8" height="8"/><rect class="e" x="286" y="156" width="8" height="8"/><rect class="e" x="346" y="156" width="8" height="8"/><rect class="e" x="406" y="156" width="8" height="8"/><rect class="e" x="466" y="156" width="8" height="8"/><rect class="e" x="526" y="156" width="8" height="8"/><rect class="e" x="586" y="156" width="8" height="8"/><rect class="e" x="646" y="156" width="8" height="8"/><rect class="e" x="686" y="156" width="8" height="8"/><rect class="e" x="766" y="156" width="8" height="8"/><rect class="e" x="826" y="156" width="8" height="8"/><rect class="e" x="866" y="156" width="8" height="8"/><rect class="e" x="966" y="156" width="8" height="8"/><rect class="e" x="1026" y="156" width="8" height="8"/><rect class="e" x="1066" y="156" width="8" height="8"/><rect class="e" x="26" y="156" width="8" height="8"/><rect class="e" x="86" y="156" width="8" height="8"/><rect class="e" x="146" y="156" width="8" height="8"/><rect class="e" x="206" y="156" width="8" height="8"/><rect class="e" x="266" y="156" width="8" height="8"/><rect class="e" x="326" y="156" width="8" height="8"/><rect class="e" x="386" y="156" width="8" height="8"/><rect class="e" x="446" y="156" width="8" height="8"/><rect class="e" x="506" y="156" width="8" height="8"/><rect class="e" x="566" y="156" width="8" height="8"/><rect class="e" x="606" y="156" width="8" height="8"/><rect class="e" x="666" y="156" width="8" height="8"/><rect class="e" x="726" y="156" width="8" height="8"/><rect class="e" x="786" y="156" width="8" height="8"/><rect class="e" x="846" y="156" width="8" height="8"/><rect class="e" x="906" y="156" width="8" height="8"/><rect class="e" x="986" y="156" width="8" height="8"/><rect class="e" x="1046" y="156" width="8" height="8"/><rect class="e" x="1106" y="156" width="8" height="8"/><rect class="e" x="1166" y="156" width="8" height="8"/><rect class="e" x="1206" y="156" width="8" height="8"/><rect class="e" x="1246" y="156" width="8" height="8"/><rect class="e" x="1286" y="156" width="8" height="8"/><rect class="e" x="1326" y="156" width="8" height="8"/><rect class="e" x="1366" y="156" width="8" height="8"/><rect class="e" x="1406" y="156" width="8" height="8"/><rect class="e" x="1446" y="156" width="8" height="8"/><rect class="e" x="1486" y="156" width="8" height="8"/><rect class="e" x="1526" y="156" width="8" height="8"/><rect class="e" x="1566" y="156" width="8" height="8"/><rect class="e" x="1606" y="156" width="8" height="8"/><rect class="e" x="1646" y="156" width="8" height="8"/><rect class="e" x="1686" y="156" width="8" height="8"/><rect class="e" x="1726" y="156" width="8" height="8"/><rect class="e" x="1746" y="156" width="8" height="8"/><rect class="e" x="1766" y="156" width="8" height="8"/><rect class="e" x="1786" y="156" width="8" height="8"/><rect class="e" x="1806" y="156" width="8" height="8"/><rect class="e" x="1826" y="156" width="8" height="8"/><rect class="e" x="1846" y="156" width="8" height="8"/><rect class="e" x="1866" y="156" width="8" height="8"/><rect class="e" x="1886" y="156" width="8" height="8"/><rect class="e" x="66" y="156" width="8" height="8"/><rect class="e" x="126" y="156" width="8" height="8"/><rect class="e" x="186" y="156" width="8" height="8"/><rect class="e" x="246" y="156" width="8" height="8"/><rect class="e" x="306" y="156" width="8" height="8"/><rect class="e" x="366" y="156" width="8" height="8"/><rect class="e" x="426" y="156" width="8" height="8"/><rect class="e" x="486" y="156" width="8" height="8"/><rect class="e" x="546" y="156" width="8" height="8"/><rect class="e" x="626" y="156" width="8" height="8"/><rect class="e" x="706" y="156" width="8" height="8"/><rect class="e" x="746" y="156" width="8" height="8"/><rect class="e" x="806" y="156" width="8" height="8"/><rect class="e" x="886" y="156" width="8" height="8"/><rect class="e" x="926" y="156" width="8" height="8"/><rect class="e" x="1006" y="156" width="8" height="8"/><rect class="e" x="1086" y="156" width="8" height="8"/><rect class="e" x="1126" y="156" width="8" height="8"/><rect class="e" x="1146" y="156" width="8" height="8"/><rect class="e" x="1186" y="156" width="8" height="8"/><rect class="e" x="1226" y="156" width="8" height="8"/><rect class="e" x="1266" y="156" width="8" height="8"/><rect class="e" x="1306" y="156" width="8" height="8"/><rect class="e" x="1346" y="156" width="8" height="8"/><rect class="e" x="1386" y="156" width="8" height="8"/><rect class="e" x="1426" y="156" width="8" height="8"/><rect class="e" x="1466" y="156" width="8" height="8"/><rect class="e" x="1506" y="156" width="8" height="8"/><rect class="e" x="1546" y="156" width="8" height="8"/><rect class="e" x="1586" y="156" width="8" height="8"/><rect class="e" x="1626" y="156" width="8" height="8"/><rect class="e" x="1666" y="156" width="8" height="8"/><rect class="e" x="1706" y="156" width="8" height="8"/><rect class="e" x="946" y="156" width="8" height="8"/><rect class="e" x="6.5" y="136.5" width="7" height="7"/><rect class="e" x="1906.5" y="136.5" width="7" height="7"/><rect class="e" x="46.5" y="136.5" width="7" height="7"/><rect class="e" x="106.5" y="136.5" width="7" height="7"/><rect class="e" x="166.5" y="136.5" width="7" height="7"/><rect class="e" x="226.5" y="136.5" width="7" height="7"/><rect class="e" x="286.5" y="136.5" width="7" height="7"/><rect class="e" x="346.5" y="136.5" width="7" height="7"/><rect class="e" x="406.5" y="136.5" width="7" height="7"/><rect class="e" x="466.5" y="136.5" width="7" height="7"/><rect class="e" x="526.5" y="136.5" width="7" height="7"/><rect class="e" x="586.5" y="136.5" width="7" height="7"/><rect class="e" x="646.5" y="136.5" width="7" height="7"/><rect class="e" x="686.5" y="136.5" width="7" height="7"/><rect class="e" x="766.5" y="136.5" width="7" height="7"/><rect class="e" x="826.5" y="136.5" width="7" height="7"/><rect class="e" x="866.5" y="136.5" width="7" height="7"/><rect class="e" x="966.5" y="136.5" width="7" height="7"/><rect class="e" x="1026.5" y="136.5" width="7" height="7"/><rect class="e" x="1066.5" y="136.5" width="7" height="7"/><rect class="e" x="26.5" y="136.5" width="7" height="7"/><rect class="e" x="86.5" y="136.5" width="7" height="7"/><rect class="e" x="146.5" y="136.5" width="7" height="7"/><rect class="e" x="206.5" y="136.5" width="7" height="7"/><rect class="e" x="266.5" y="136.5" width="7" height="7"/><rect class="e" x="326.5" y="136.5" width="7" height="7"/><rect class="e" x="386.5" y="136.5" width="7" height="7"/><rect class="e" x="446.5" y="136.5" width="7" height="7"/><rect class="e" x="506.5" y="136.5" width="7" height="7"/><rect class="e" x="566.5" y="136.5" width="7" height="7"/><rect class="e" x="606.5" y="136.5" width="7" height="7"/><rect class="e" x="666.5" y="136.5" width="7" height="7"/><rect class="e" x="726.5" y="136.5" width="7" height="7"/><rect class="e" x="786.5" y="136.5" width="7" height="7"/><rect class="e" x="846.5" y="136.5" width="7" height="7"/><rect class="e" x="906.5" y="136.5" width="7" height="7"/><rect class="e" x="986.5" y="136.5" width="7" height="7"/><rect class="e" x="1046.5" y="136.5" width="7" height="7"/><rect class="e" x="1106.5" y="136.5" width="7" height="7"/><rect class="e" x="1166.5" y="136.5" width="7" height="7"/><rect class="e" x="1206.5" y="136.5" width="7" height="7"/><rect class="e" x="1246.5" y="136.5" width="7" height="7"/><rect class="e" x="1286.5" y="136.5" width="7" height="7"/><rect class="e" x="1326.5" y="136.5" width="7" height="7"/><rect class="e" x="1366.5" y="136.5" width="7" height="7"/><rect class="e" x="1406.5" y="136.5" width="7" height="7"/><rect class="e" x="1446.5" y="136.5" width="7" height="7"/><rect class="e" x="1486.5" y="136.5" width="7" height="7"/><rect class="e" x="1526.5" y="136.5" width="7" height="7"/><rect class="e" x="1566.5" y="136.5" width="7" height="7"/><rect class="e" x="1606.5" y="136.5" width="7" height="7"/><rect class="e" x="1646.5" y="136.5" width="7" height="7"/><rect class="e" x="1686.5" y="136.5" width="7" height="7"/><rect class="e" x="1726.5" y="136.5" width="7" height="7"/><rect class="e" x="1746.5" y="136.5" width="7" height="7"/><rect class="e" x="1766.5" y="136.5" width="7" height="7"/><rect class="e" x="1786.5" y="136.5" width="7" height="7"/><rect class="e" x="1806.5" y="136.5" width="7" height="7"/><rect class="e" x="1826.5" y="136.5" width="7" height="7"/><rect class="e" x="1846.5" y="136.5" width="7" height="7"/><rect class="e" x="1866.5" y="136.5" width="7" height="7"/><rect class="e" x="1886.5" y="136.5" width="7" height="7"/><rect class="e" x="66.5" y="136.5" width="7" height="7"/><rect class="e" x="126.5" y="136.5" width="7" height="7"/><rect class="e" x="186.5" y="136.5" width="7" height="7"/><rect class="e" x="246.5" y="136.5" width="7" height="7"/><rect class="e" x="306.5" y="136.5" width="7" height="7"/><rect class="e" x="366.5" y="136.5" width="7" height="7"/><rect class="e" x="426.5" y="136.5" width="7" height="7"/><rect class="e" x="486.5" y="136.5" width="7" height="7"/><rect class="e" x="546.5" y="136.5" width="7" height="7"/><rect class="e" x="626.5" y="136.5" width="7" height="7"/><rect class="e" x="706.5" y="136.5" width="7" height="7"/><rect class="e" x="746.5" y="136.5" width="7" height="7"/><rect class="e" x="806.5" y="136.5" width="7" height="7"/><rect class="e" x="886.5" y="136.5" width="7" height="7"/><rect class="e" x="926.5" y="136.5" width="7" height="7"/><rect class="e" x="1006.5" y="136.5" width="7" height="7"/><rect class="e" x="1086.5" y="136.5" width="7" height="7"/><rect class="e" x="1126.5" y="136.5" width="7" height="7"/><rect class="e" x="1146.5" y="136.5" width="7" height="7"/><rect class="e" x="1186.5" y="136.5" width="7" height="7"/><rect class="e" x="1226.5" y="136.5" width="7" height="7"/><rect class="e" x="1266.5" y="136.5" width="7" height="7"/><rect class="e" x="1306.5" y="136.5" width="7" height="7"/><rect class="e" x="1346.5" y="136.5" width="7" height="7"/><rect class="e" x="1386.5" y="136.5" width="7" height="7"/><rect class="e" x="1426.5" y="136.5" width="7" height="7"/><rect class="e" x="1466.5" y="136.5" width="7" height="7"/><rect class="e" x="1506.5" y="136.5" width="7" height="7"/><rect class="e" x="1546.5" y="136.5" width="7" height="7"/><rect class="e" x="1586.5" y="136.5" width="7" height="7"/><rect class="e" x="1626.5" y="136.5" width="7" height="7"/><rect class="e" x="1666.5" y="136.5" width="7" height="7"/><rect class="e" x="1706.5" y="136.5" width="7" height="7"/><rect class="e" x="946.5" y="136.5" width="7" height="7"/><rect class="e" x="7" y="117" width="6" height="6"/><rect class="e" x="1907" y="117" width="6" height="6"/><rect class="e" x="47" y="117" width="6" height="6"/><rect class="e" x="107" y="117" width="6" height="6"/><rect class="e" x="167" y="117" width="6" height="6"/><rect class="e" x="227" y="117" width="6" height="6"/><rect class="e" x="287" y="117" width="6" height="6"/><rect class="e" x="347" y="117" width="6" height="6"/><rect class="e" x="407" y="117" width="6" height="6"/><rect class="e" x="467" y="117" width="6" height="6"/><rect class="e" x="527" y="117" width="6" height="6"/><rect class="e" x="587" y="117" width="6" height="6"/><rect class="e" x="647" y="117" width="6" height="6"/><rect class="e" x="687" y="117" width="6" height="6"/><rect class="e" x="767" y="117" width="6" height="6"/><rect class="e" x="827" y="117" width="6" height="6"/><rect class="e" x="867" y="117" width="6" height="6"/><rect class="e" x="967" y="117" width="6" height="6"/><rect class="e" x="1027" y="117" width="6" height="6"/><rect class="e" x="1067" y="117" width="6" height="6"/><rect class="e" x="27" y="117" width="6" height="6"/><rect class="e" x="87" y="117" width="6" height="6"/><rect class="e" x="147" y="117" width="6" height="6"/><rect class="e" x="207" y="117" width="6" height="6"/><rect class="e" x="267" y="117" width="6" height="6"/><rect class="e" x="327" y="117" width="6" height="6"/><rect class="e" x="387" y="117" width="6" height="6"/><rect class="e" x="447" y="117" width="6" height="6"/><rect class="e" x="507" y="117" width="6" height="6"/><rect class="e" x="567" y="117" width="6" height="6"/><rect class="e" x="607" y="117" width="6" height="6"/><rect class="e" x="667" y="117" width="6" height="6"/><rect class="e" x="727" y="117" width="6" height="6"/><rect class="e" x="787" y="117" width="6" height="6"/><rect class="e" x="847" y="117" width="6" height="6"/><rect class="e" x="907" y="117" width="6" height="6"/><rect class="e" x="987" y="117" width="6" height="6"/><rect class="e" x="1047" y="117" width="6" height="6"/><rect class="e" x="1107" y="117" width="6" height="6"/><rect class="e" x="1167" y="117" width="6" height="6"/><rect class="e" x="1207" y="117" width="6" height="6"/><rect class="e" x="1247" y="117" width="6" height="6"/><rect class="e" x="1287" y="117" width="6" height="6"/><rect class="e" x="1327" y="117" width="6" height="6"/><rect class="e" x="1367" y="117" width="6" height="6"/><rect class="e" x="1407" y="117" width="6" height="6"/><rect class="e" x="1447" y="117" width="6" height="6"/><rect class="e" x="1487" y="117" width="6" height="6"/><rect class="e" x="1527" y="117" width="6" height="6"/><rect class="e" x="1567" y="117" width="6" height="6"/><rect class="e" x="1607" y="117" width="6" height="6"/><rect class="e" x="1647" y="117" width="6" height="6"/><rect class="e" x="1687" y="117" width="6" height="6"/><rect class="e" x="1727" y="117" width="6" height="6"/><rect class="e" x="1747" y="117" width="6" height="6"/><rect class="e" x="1767" y="117" width="6" height="6"/><rect class="e" x="1787" y="117" width="6" height="6"/><rect class="e" x="1807" y="117" width="6" height="6"/><rect class="e" x="1827" y="117" width="6" height="6"/><rect class="e" x="1847" y="117" width="6" height="6"/><rect class="e" x="1867" y="117" width="6" height="6"/><rect class="e" x="1887" y="117" width="6" height="6"/><rect class="e" x="67" y="117" width="6" height="6"/><rect class="e" x="127" y="117" width="6" height="6"/><rect class="e" x="187" y="117" width="6" height="6"/><rect class="e" x="247" y="117" width="6" height="6"/><rect class="e" x="307" y="117" width="6" height="6"/><rect class="e" x="367" y="117" width="6" height="6"/><rect class="e" x="427" y="117" width="6" height="6"/><rect class="e" x="487" y="117" width="6" height="6"/><rect class="e" x="547" y="117" width="6" height="6"/><rect class="e" x="627" y="117" width="6" height="6"/><rect class="e" x="707" y="117" width="6" height="6"/><rect class="e" x="747" y="117" width="6" height="6"/><rect class="e" x="807" y="117" width="6" height="6"/><rect class="e" x="887" y="117" width="6" height="6"/><rect class="e" x="927" y="117" width="6" height="6"/><rect class="e" x="1007" y="117" width="6" height="6"/><rect class="e" x="1087" y="117" width="6" height="6"/><rect class="e" x="1127" y="117" width="6" height="6"/><rect class="e" x="1147" y="117" width="6" height="6"/><rect class="e" x="1187" y="117" width="6" height="6"/><rect class="e" x="1227" y="117" width="6" height="6"/><rect class="e" x="1267" y="117" width="6" height="6"/><rect class="e" x="1307" y="117" width="6" height="6"/><rect class="e" x="1347" y="117" width="6" height="6"/><rect class="e" x="1387" y="117" width="6" height="6"/><rect class="e" x="1427" y="117" width="6" height="6"/><rect class="e" x="1467" y="117" width="6" height="6"/><rect class="e" x="1507" y="117" width="6" height="6"/><rect class="e" x="1547" y="117" width="6" height="6"/><rect class="e" x="1587" y="117" width="6" height="6"/><rect class="e" x="1627" y="117" width="6" height="6"/><rect class="e" x="1667" y="117" width="6" height="6"/><rect class="e" x="1707" y="117" width="6" height="6"/><rect class="e" x="947" y="117" width="6" height="6"/><rect class="e" x="7.5" y="97.5" width="5" height="5"/><rect class="e" x="1907.5" y="97.5" width="5" height="5"/><rect class="e" x="47.5" y="97.5" width="5" height="5"/><rect class="e" x="107.5" y="97.5" width="5" height="5"/><rect class="e" x="167.5" y="97.5" width="5" height="5"/><rect class="e" x="227.5" y="97.5" width="5" height="5"/><rect class="e" x="287.5" y="97.5" width="5" height="5"/><rect class="e" x="347.5" y="97.5" width="5" height="5"/><rect class="e" x="407.5" y="97.5" width="5" height="5"/><rect class="e" x="467.5" y="97.5" width="5" height="5"/><rect class="e" x="527.5" y="97.5" width="5" height="5"/><rect class="e" x="587.5" y="97.5" width="5" height="5"/><rect class="e" x="647.5" y="97.5" width="5" height="5"/><rect class="e" x="687.5" y="97.5" width="5" height="5"/><rect class="e" x="767.5" y="97.5" width="5" height="5"/><rect class="e" x="827.5" y="97.5" width="5" height="5"/><rect class="e" x="867.5" y="97.5" width="5" height="5"/><rect class="e" x="967.5" y="97.5" width="5" height="5"/><rect class="e" x="1027.5" y="97.5" width="5" height="5"/><rect class="e" x="1067.5" y="97.5" width="5" height="5"/><rect class="e" x="27.5" y="97.5" width="5" height="5"/><rect class="e" x="87.5" y="97.5" width="5" height="5"/><rect class="e" x="147.5" y="97.5" width="5" height="5"/><rect class="e" x="207.5" y="97.5" width="5" height="5"/><rect class="e" x="267.5" y="97.5" width="5" height="5"/><rect class="e" x="327.5" y="97.5" width="5" height="5"/><rect class="e" x="387.5" y="97.5" width="5" height="5"/><rect class="e" x="447.5" y="97.5" width="5" height="5"/><rect class="e" x="507.5" y="97.5" width="5" height="5"/><rect class="e" x="567.5" y="97.5" width="5" height="5"/><rect class="e" x="607.5" y="97.5" width="5" height="5"/><rect class="e" x="667.5" y="97.5" width="5" height="5"/><rect class="e" x="727.5" y="97.5" width="5" height="5"/><rect class="e" x="787.5" y="97.5" width="5" height="5"/><rect class="e" x="847.5" y="97.5" width="5" height="5"/><rect class="e" x="907.5" y="97.5" width="5" height="5"/><rect class="e" x="987.5" y="97.5" width="5" height="5"/><rect class="e" x="1047.5" y="97.5" width="5" height="5"/><rect class="e" x="1107.5" y="97.5" width="5" height="5"/><rect class="e" x="1167.5" y="97.5" width="5" height="5"/><rect class="e" x="1207.5" y="97.5" width="5" height="5"/><rect class="e" x="1247.5" y="97.5" width="5" height="5"/><rect class="e" x="1287.5" y="97.5" width="5" height="5"/><rect class="e" x="1327.5" y="97.5" width="5" height="5"/><rect class="e" x="1367.5" y="97.5" width="5" height="5"/><rect class="e" x="1407.5" y="97.5" width="5" height="5"/><rect class="e" x="1447.5" y="97.5" width="5" height="5"/><rect class="e" x="1487.5" y="97.5" width="5" height="5"/><rect class="e" x="1527.5" y="97.5" width="5" height="5"/><rect class="e" x="1567.5" y="97.5" width="5" height="5"/><rect class="e" x="1607.5" y="97.5" width="5" height="5"/><rect class="e" x="1647.5" y="97.5" width="5" height="5"/><rect class="e" x="1687.5" y="97.5" width="5" height="5"/><rect class="e" x="1727.5" y="97.5" width="5" height="5"/><rect class="e" x="1747.5" y="97.5" width="5" height="5"/><rect class="e" x="1767.5" y="97.5" width="5" height="5"/><rect class="e" x="1787.5" y="97.5" width="5" height="5"/><rect class="e" x="1807.5" y="97.5" width="5" height="5"/><rect class="e" x="1827.5" y="97.5" width="5" height="5"/><rect class="e" x="1847.5" y="97.5" width="5" height="5"/><rect class="e" x="1867.5" y="97.5" width="5" height="5"/><rect class="e" x="1887.5" y="97.5" width="5" height="5"/><rect class="e" x="67.5" y="97.5" width="5" height="5"/><rect class="e" x="127.5" y="97.5" width="5" height="5"/><rect class="e" x="187.5" y="97.5" width="5" height="5"/><rect class="e" x="247.5" y="97.5" width="5" height="5"/><rect class="e" x="307.5" y="97.5" width="5" height="5"/><rect class="e" x="367.5" y="97.5" width="5" height="5"/><rect class="e" x="427.5" y="97.5" width="5" height="5"/><rect class="e" x="487.5" y="97.5" width="5" height="5"/><rect class="e" x="547.5" y="97.5" width="5" height="5"/><rect class="e" x="627.5" y="97.5" width="5" height="5"/><rect class="e" x="707.5" y="97.5" width="5" height="5"/><rect class="e" x="747.5" y="97.5" width="5" height="5"/><rect class="e" x="807.5" y="97.5" width="5" height="5"/><rect class="e" x="887.5" y="97.5" width="5" height="5"/><rect class="e" x="927.5" y="97.5" width="5" height="5"/><rect class="e" x="1007.5" y="97.5" width="5" height="5"/><rect class="e" x="1087.5" y="97.5" width="5" height="5"/><rect class="e" x="1127.5" y="97.5" width="5" height="5"/><rect class="e" x="1147.5" y="97.5" width="5" height="5"/><rect class="e" x="1187.5" y="97.5" width="5" height="5"/><rect class="e" x="1227.5" y="97.5" width="5" height="5"/><rect class="e" x="1267.5" y="97.5" width="5" height="5"/><rect class="e" x="1307.5" y="97.5" width="5" height="5"/><rect class="e" x="1347.5" y="97.5" width="5" height="5"/><rect class="e" x="1387.5" y="97.5" width="5" height="5"/><rect class="e" x="1427.5" y="97.5" width="5" height="5"/><rect class="e" x="1467.5" y="97.5" width="5" height="5"/><rect class="e" x="1507.5" y="97.5" width="5" height="5"/><rect class="e" x="1547.5" y="97.5" width="5" height="5"/><rect class="e" x="1587.5" y="97.5" width="5" height="5"/><rect class="e" x="1627.5" y="97.5" width="5" height="5"/><rect class="e" x="1667.5" y="97.5" width="5" height="5"/><rect class="e" x="1707.5" y="97.5" width="5" height="5"/><rect class="e" x="947.5" y="97.5" width="5" height="5"/><rect class="e" x="8" y="78" width="4" height="4"/><rect class="e" x="1908" y="78" width="4" height="4"/><rect class="e" x="48" y="78" width="4" height="4"/><rect class="e" x="108" y="78" width="4" height="4"/><rect class="e" x="168" y="78" width="4" height="4"/><rect class="e" x="228" y="78" width="4" height="4"/><rect class="e" x="288" y="78" width="4" height="4"/><rect class="e" x="348" y="78" width="4" height="4"/><rect class="e" x="408" y="78" width="4" height="4"/><rect class="e" x="468" y="78" width="4" height="4"/><rect class="e" x="528" y="78" width="4" height="4"/><rect class="e" x="588" y="78" width="4" height="4"/><rect class="e" x="648" y="78" width="4" height="4"/><rect class="e" x="688" y="78" width="4" height="4"/><rect class="e" x="768" y="78" width="4" height="4"/><rect class="e" x="828" y="78" width="4" height="4"/><rect class="e" x="868" y="78" width="4" height="4"/><rect class="e" x="968" y="78" width="4" height="4"/><rect class="e" x="1028" y="78" width="4" height="4"/><rect class="e" x="1068" y="78" width="4" height="4"/><rect class="e" x="28" y="78" width="4" height="4"/><rect class="e" x="88" y="78" width="4" height="4"/><rect class="e" x="148" y="78" width="4" height="4"/><rect class="e" x="208" y="78" width="4" height="4"/><rect class="e" x="268" y="78" width="4" height="4"/><rect class="e" x="328" y="78" width="4" height="4"/><rect class="e" x="388" y="78" width="4" height="4"/><rect class="e" x="448" y="78" width="4" height="4"/><rect class="e" x="508" y="78" width="4" height="4"/><rect class="e" x="568" y="78" width="4" height="4"/><rect class="e" x="608" y="78" width="4" height="4"/><rect class="e" x="668" y="78" width="4" height="4"/><rect class="e" x="728" y="78" width="4" height="4"/><rect class="e" x="788" y="78" width="4" height="4"/><rect class="e" x="848" y="78" width="4" height="4"/><rect class="e" x="908" y="78" width="4" height="4"/><rect class="e" x="988" y="78" width="4" height="4"/><rect class="e" x="1048" y="78" width="4" height="4"/><rect class="e" x="1108" y="78" width="4" height="4"/><rect class="e" x="1168" y="78" width="4" height="4"/><rect class="e" x="1208" y="78" width="4" height="4"/><rect class="e" x="1248" y="78" width="4" height="4"/><rect class="e" x="1288" y="78" width="4" height="4"/><rect class="e" x="1328" y="78" width="4" height="4"/><rect class="e" x="1368" y="78" width="4" height="4"/><rect class="e" x="1408" y="78" width="4" height="4"/><rect class="e" x="1448" y="78" width="4" height="4"/><rect class="e" x="1488" y="78" width="4" height="4"/><rect class="e" x="1528" y="78" width="4" height="4"/><rect class="e" x="1568" y="78" width="4" height="4"/><rect class="e" x="1608" y="78" width="4" height="4"/><rect class="e" x="1648" y="78" width="4" height="4"/><rect class="e" x="1688" y="78" width="4" height="4"/><rect class="e" x="1728" y="78" width="4" height="4"/><rect class="e" x="1748" y="78" width="4" height="4"/><rect class="e" x="1768" y="78" width="4" height="4"/><rect class="e" x="1788" y="78" width="4" height="4"/><rect class="e" x="1808" y="78" width="4" height="4"/><rect class="e" x="1828" y="78" width="4" height="4"/><rect class="e" x="1848" y="78" width="4" height="4"/><rect class="e" x="1868" y="78" width="4" height="4"/><rect class="e" x="1888" y="78" width="4" height="4"/><rect class="e" x="68" y="78" width="4" height="4"/><rect class="e" x="128" y="78" width="4" height="4"/><rect class="e" x="188" y="78" width="4" height="4"/><rect class="e" x="248" y="78" width="4" height="4"/><rect class="e" x="308" y="78" width="4" height="4"/><rect class="e" x="368" y="78" width="4" height="4"/><rect class="e" x="428" y="78" width="4" height="4"/><rect class="e" x="488" y="78" width="4" height="4"/><rect class="e" x="548" y="78" width="4" height="4"/><rect class="e" x="628" y="78" width="4" height="4"/><rect class="e" x="708" y="78" width="4" height="4"/><rect class="e" x="748" y="78" width="4" height="4"/><rect class="e" x="808" y="78" width="4" height="4"/><rect class="e" x="888" y="78" width="4" height="4"/><rect class="e" x="928" y="78" width="4" height="4"/><rect class="e" x="1008" y="78" width="4" height="4"/><rect class="e" x="1088" y="78" width="4" height="4"/><rect class="e" x="1128" y="78" width="4" height="4"/><rect class="e" x="1148" y="78" width="4" height="4"/><rect class="e" x="1188" y="78" width="4" height="4"/><rect class="e" x="1228" y="78" width="4" height="4"/><rect class="e" x="1268" y="78" width="4" height="4"/><rect class="e" x="1308" y="78" width="4" height="4"/><rect class="e" x="1348" y="78" width="4" height="4"/><rect class="e" x="1388" y="78" width="4" height="4"/><rect class="e" x="1428" y="78" width="4" height="4"/><rect class="e" x="1468" y="78" width="4" height="4"/><rect class="e" x="1508" y="78" width="4" height="4"/><rect class="e" x="1548" y="78" width="4" height="4"/><rect class="e" x="1588" y="78" width="4" height="4"/><rect class="e" x="1628" y="78" width="4" height="4"/><rect class="e" x="1668" y="78" width="4" height="4"/><rect class="e" x="1708" y="78" width="4" height="4"/><rect class="e" x="948" y="78" width="4" height="4"/><rect class="e" x="8.5" y="58.5" width="3" height="3"/><rect class="e" x="1908.5" y="58.5" width="3" height="3"/><rect class="e" x="48.5" y="58.5" width="3" height="3"/><rect class="e" x="108.5" y="58.5" width="3" height="3"/><rect class="e" x="168.5" y="58.5" width="3" height="3"/><rect class="e" x="228.5" y="58.5" width="3" height="3"/><rect class="e" x="288.5" y="58.5" width="3" height="3"/><rect class="e" x="348.5" y="58.5" width="3" height="3"/><rect class="e" x="408.5" y="58.5" width="3" height="3"/><rect class="e" x="468.5" y="58.5" width="3" height="3"/><rect class="e" x="528.5" y="58.5" width="3" height="3"/><rect class="e" x="588.5" y="58.5" width="3" height="3"/><rect class="e" x="648.5" y="58.5" width="3" height="3"/><rect class="e" x="688.5" y="58.5" width="3" height="3"/><rect class="e" x="768.5" y="58.5" width="3" height="3"/><rect class="e" x="828.5" y="58.5" width="3" height="3"/><rect class="e" x="868.5" y="58.5" width="3" height="3"/><rect class="e" x="968.5" y="58.5" width="3" height="3"/><rect class="e" x="1028.5" y="58.5" width="3" height="3"/><rect class="e" x="1068.5" y="58.5" width="3" height="3"/><rect class="e" x="28.5" y="58.5" width="3" height="3"/><rect class="e" x="88.5" y="58.5" width="3" height="3"/><rect class="e" x="148.5" y="58.5" width="3" height="3"/><rect class="e" x="208.5" y="58.5" width="3" height="3"/><rect class="e" x="268.5" y="58.5" width="3" height="3"/><rect class="e" x="328.5" y="58.5" width="3" height="3"/><rect class="e" x="388.5" y="58.5" width="3" height="3"/><rect class="e" x="448.5" y="58.5" width="3" height="3"/><rect class="e" x="508.5" y="58.5" width="3" height="3"/><rect class="e" x="568.5" y="58.5" width="3" height="3"/><rect class="e" x="608.5" y="58.5" width="3" height="3"/><rect class="e" x="668.5" y="58.5" width="3" height="3"/><rect class="e" x="728.5" y="58.5" width="3" height="3"/><rect class="e" x="788.5" y="58.5" width="3" height="3"/><rect class="e" x="848.5" y="58.5" width="3" height="3"/><rect class="e" x="908.5" y="58.5" width="3" height="3"/><rect class="e" x="988.5" y="58.5" width="3" height="3"/><rect class="e" x="1048.5" y="58.5" width="3" height="3"/><rect class="e" x="1108.5" y="58.5" width="3" height="3"/><rect class="e" x="1168.5" y="58.5" width="3" height="3"/><rect class="e" x="1208.5" y="58.5" width="3" height="3"/><rect class="e" x="1248.5" y="58.5" width="3" height="3"/><rect class="e" x="1288.5" y="58.5" width="3" height="3"/><rect class="e" x="1328.5" y="58.5" width="3" height="3"/><rect class="e" x="1368.5" y="58.5" width="3" height="3"/><rect class="e" x="1408.5" y="58.5" width="3" height="3"/><rect class="e" x="1448.5" y="58.5" width="3" height="3"/><rect class="e" x="1488.5" y="58.5" width="3" height="3"/><rect class="e" x="1528.5" y="58.5" width="3" height="3"/><rect class="e" x="1568.5" y="58.5" width="3" height="3"/><rect class="e" x="1608.5" y="58.5" width="3" height="3"/><rect class="e" x="1648.5" y="58.5" width="3" height="3"/><rect class="e" x="1688.5" y="58.5" width="3" height="3"/><rect class="e" x="1728.5" y="58.5" width="3" height="3"/><rect class="e" x="1748.5" y="58.5" width="3" height="3"/><rect class="e" x="1768.5" y="58.5" width="3" height="3"/><rect class="e" x="1788.5" y="58.5" width="3" height="3"/><rect class="e" x="1808.5" y="58.5" width="3" height="3"/><rect class="e" x="1828.5" y="58.5" width="3" height="3"/><rect class="e" x="1848.5" y="58.5" width="3" height="3"/><rect class="e" x="1868.5" y="58.5" width="3" height="3"/><rect class="e" x="1888.5" y="58.5" width="3" height="3"/><rect class="e" x="68.5" y="58.5" width="3" height="3"/><rect class="e" x="128.5" y="58.5" width="3" height="3"/><rect class="e" x="188.5" y="58.5" width="3" height="3"/><rect class="e" x="248.5" y="58.5" width="3" height="3"/><rect class="e" x="308.5" y="58.5" width="3" height="3"/><rect class="e" x="368.5" y="58.5" width="3" height="3"/><rect class="e" x="428.5" y="58.5" width="3" height="3"/><rect class="e" x="488.5" y="58.5" width="3" height="3"/><rect class="e" x="548.5" y="58.5" width="3" height="3"/><rect class="e" x="628.5" y="58.5" width="3" height="3"/><rect class="e" x="708.5" y="58.5" width="3" height="3"/><rect class="e" x="748.5" y="58.5" width="3" height="3"/><rect class="e" x="808.5" y="58.5" width="3" height="3"/><rect class="e" x="888.5" y="58.5" width="3" height="3"/><rect class="e" x="928.5" y="58.5" width="3" height="3"/><rect class="e" x="1008.5" y="58.5" width="3" height="3"/><rect class="e" x="1088.5" y="58.5" width="3" height="3"/><rect class="e" x="1128.5" y="58.5" width="3" height="3"/><rect class="e" x="1148.5" y="58.5" width="3" height="3"/><rect class="e" x="1188.5" y="58.5" width="3" height="3"/><rect class="e" x="1228.5" y="58.5" width="3" height="3"/><rect class="e" x="1268.5" y="58.5" width="3" height="3"/><rect class="e" x="1308.5" y="58.5" width="3" height="3"/><rect class="e" x="1348.5" y="58.5" width="3" height="3"/><rect class="e" x="1388.5" y="58.5" width="3" height="3"/><rect class="e" x="1428.5" y="58.5" width="3" height="3"/><rect class="e" x="1468.5" y="58.5" width="3" height="3"/><rect class="e" x="1508.5" y="58.5" width="3" height="3"/><rect class="e" x="1548.5" y="58.5" width="3" height="3"/><rect class="e" x="1588.5" y="58.5" width="3" height="3"/><rect class="e" x="1628.5" y="58.5" width="3" height="3"/><rect class="e" x="1668.5" y="58.5" width="3" height="3"/><rect class="e" x="1708.5" y="58.5" width="3" height="3"/><rect class="e" x="948.5" y="58.5" width="3" height="3"/><rect class="e" x="9" y="39" width="2" height="2"/><rect class="e" x="1909" y="39" width="2" height="2"/><rect class="e" x="49" y="39" width="2" height="2"/><rect class="e" x="109" y="39" width="2" height="2"/><rect class="e" x="169" y="39" width="2" height="2"/><rect class="e" x="229" y="39" width="2" height="2"/><rect class="e" x="289" y="39" width="2" height="2"/><rect class="e" x="349" y="39" width="2" height="2"/><rect class="e" x="409" y="39" width="2" height="2"/><rect class="e" x="469" y="39" width="2" height="2"/><rect class="e" x="529" y="39" width="2" height="2"/><rect class="e" x="589" y="39" width="2" height="2"/><rect class="e" x="649" y="39" width="2" height="2"/><rect class="e" x="689" y="39" width="2" height="2"/><rect class="e" x="769" y="39" width="2" height="2"/><rect class="e" x="829" y="39" width="2" height="2"/><rect class="e" x="869" y="39" width="2" height="2"/><rect class="e" x="969" y="39" width="2" height="2"/><rect class="e" x="1029" y="39" width="2" height="2"/><rect class="e" x="1069" y="39" width="2" height="2"/><rect class="e" x="29" y="39" width="2" height="2"/><rect class="e" x="89" y="39" width="2" height="2"/><rect class="e" x="149" y="39" width="2" height="2"/><rect class="e" x="209" y="39" width="2" height="2"/><rect class="e" x="269" y="39" width="2" height="2"/><rect class="e" x="329" y="39" width="2" height="2"/><rect class="e" x="389" y="39" width="2" height="2"/><rect class="e" x="449" y="39" width="2" height="2"/><rect class="e" x="509" y="39" width="2" height="2"/><rect class="e" x="569" y="39" width="2" height="2"/><rect class="e" x="609" y="39" width="2" height="2"/><rect class="e" x="669" y="39" width="2" height="2"/><rect class="e" x="729" y="39" width="2" height="2"/><rect class="e" x="789" y="39" width="2" height="2"/><rect class="e" x="849" y="39" width="2" height="2"/><rect class="e" x="909" y="39" width="2" height="2"/><rect class="e" x="989" y="39" width="2" height="2"/><rect class="e" x="1049" y="39" width="2" height="2"/><rect class="e" x="1109" y="39" width="2" height="2"/><rect class="e" x="1169" y="39" width="2" height="2"/><rect class="e" x="1209" y="39" width="2" height="2"/><rect class="e" x="1249" y="39" width="2" height="2"/><rect class="e" x="1289" y="39" width="2" height="2"/><rect class="e" x="1329" y="39" width="2" height="2"/><rect class="e" x="1369" y="39" width="2" height="2"/><rect class="e" x="1409" y="39" width="2" height="2"/><rect class="e" x="1449" y="39" width="2" height="2"/><rect class="e" x="1489" y="39" width="2" height="2"/><rect class="e" x="1529" y="39" width="2" height="2"/><rect class="e" x="1569" y="39" width="2" height="2"/><rect class="e" x="1609" y="39" width="2" height="2"/><rect class="e" x="1649" y="39" width="2" height="2"/><rect class="e" x="1689" y="39" width="2" height="2"/><rect class="e" x="1729" y="39" width="2" height="2"/><rect class="e" x="1749" y="39" width="2" height="2"/><rect class="e" x="1769" y="39" width="2" height="2"/><rect class="e" x="1789" y="39" width="2" height="2"/><rect class="e" x="1809" y="39" width="2" height="2"/><rect class="e" x="1829" y="39" width="2" height="2"/><rect class="e" x="1849" y="39" width="2" height="2"/><rect class="e" x="1869" y="39" width="2" height="2"/><rect class="e" x="1889" y="39" width="2" height="2"/><rect class="e" x="69" y="39" width="2" height="2"/><rect class="e" x="129" y="39" width="2" height="2"/><rect class="e" x="189" y="39" width="2" height="2"/><rect class="e" x="249" y="39" width="2" height="2"/><rect class="e" x="309" y="39" width="2" height="2"/><rect class="e" x="369" y="39" width="2" height="2"/><rect class="e" x="429" y="39" width="2" height="2"/><rect class="e" x="489" y="39" width="2" height="2"/><rect class="e" x="549" y="39" width="2" height="2"/><rect class="e" x="629" y="39" width="2" height="2"/><rect class="e" x="709" y="39" width="2" height="2"/><rect class="e" x="749" y="39" width="2" height="2"/><rect class="e" x="809" y="39" width="2" height="2"/><rect class="e" x="889" y="39" width="2" height="2"/><rect class="e" x="929" y="39" width="2" height="2"/><rect class="e" x="1009" y="39" width="2" height="2"/><rect class="e" x="1089" y="39" width="2" height="2"/><rect class="e" x="1129" y="39" width="2" height="2"/><rect class="e" x="1149" y="39" width="2" height="2"/><rect class="e" x="1189" y="39" width="2" height="2"/><rect class="e" x="1229" y="39" width="2" height="2"/><rect class="e" x="1269" y="39" width="2" height="2"/><rect class="e" x="1309" y="39" width="2" height="2"/><rect class="e" x="1349" y="39" width="2" height="2"/><rect class="e" x="1389" y="39" width="2" height="2"/><rect class="e" x="1429" y="39" width="2" height="2"/><rect class="e" x="1469" y="39" width="2" height="2"/><rect class="e" x="1509" y="39" width="2" height="2"/><rect class="e" x="1549" y="39" width="2" height="2"/><rect class="e" x="1589" y="39" width="2" height="2"/><rect class="e" x="1629" y="39" width="2" height="2"/><rect class="e" x="1669" y="39" width="2" height="2"/><rect class="e" x="1709" y="39" width="2" height="2"/><rect class="e" x="949" y="39" width="2" height="2"/><rect class="e" x="9.5" y="19.5" width="1" height="1"/><rect class="e" x="1909.5" y="19.5" width="1" height="1"/><rect class="e" x="49.5" y="19.5" width="1" height="1"/><rect class="e" x="109.5" y="19.5" width="1" height="1"/><rect class="e" x="169.5" y="19.5" width="1" height="1"/><rect class="e" x="229.5" y="19.5" width="1" height="1"/><rect class="e" x="289.5" y="19.5" width="1" height="1"/><rect class="e" x="349.5" y="19.5" width="1" height="1"/><rect class="e" x="409.5" y="19.5" width="1" height="1"/><rect class="e" x="469.5" y="19.5" width="1" height="1"/><rect class="e" x="529.5" y="19.5" width="1" height="1"/><rect class="e" x="589.5" y="19.5" width="1" height="1"/><rect class="e" x="649.5" y="19.5" width="1" height="1"/><rect class="e" x="689.5" y="19.5" width="1" height="1"/><rect class="e" x="769.5" y="19.5" width="1" height="1"/><rect class="e" x="829.5" y="19.5" width="1" height="1"/><rect class="e" x="869.5" y="19.5" width="1" height="1"/><rect class="e" x="969.5" y="19.5" width="1" height="1"/><rect class="e" x="1029.5" y="19.5" width="1" height="1"/><rect class="e" x="1069.5" y="19.5" width="1" height="1"/><rect class="e" x="29.5" y="19.5" width="1" height="1"/><rect class="e" x="89.5" y="19.5" width="1" height="1"/><rect class="e" x="149.5" y="19.5" width="1" height="1"/><rect class="e" x="209.5" y="19.5" width="1" height="1"/><rect class="e" x="269.5" y="19.5" width="1" height="1"/><rect class="e" x="329.5" y="19.5" width="1" height="1"/><rect class="e" x="389.5" y="19.5" width="1" height="1"/><rect class="e" x="449.5" y="19.5" width="1" height="1"/><rect class="e" x="509.5" y="19.5" width="1" height="1"/><rect class="e" x="569.5" y="19.5" width="1" height="1"/><rect class="e" x="609.5" y="19.5" width="1" height="1"/><rect class="e" x="669.5" y="19.5" width="1" height="1"/><rect class="e" x="729.5" y="19.5" width="1" height="1"/><rect class="e" x="789.5" y="19.5" width="1" height="1"/><rect class="e" x="849.5" y="19.5" width="1" height="1"/><rect class="e" x="909.5" y="19.5" width="1" height="1"/><rect class="e" x="989.5" y="19.5" width="1" height="1"/><rect class="e" x="1049.5" y="19.5" width="1" height="1"/><rect class="e" x="1109.5" y="19.5" width="1" height="1"/><rect class="e" x="1169.5" y="19.5" width="1" height="1"/><rect class="e" x="1209.5" y="19.5" width="1" height="1"/><rect class="e" x="1249.5" y="19.5" width="1" height="1"/><rect class="e" x="1289.5" y="19.5" width="1" height="1"/><rect class="e" x="1329.5" y="19.5" width="1" height="1"/><rect class="e" x="1369.5" y="19.5" width="1" height="1"/><rect class="e" x="1409.5" y="19.5" width="1" height="1"/><rect class="e" x="1449.5" y="19.5" width="1" height="1"/><rect class="e" x="1489.5" y="19.5" width="1" height="1"/><rect class="e" x="1529.5" y="19.5" width="1" height="1"/><rect class="e" x="1569.5" y="19.5" width="1" height="1"/><rect class="e" x="1609.5" y="19.5" width="1" height="1"/><rect class="e" x="1649.5" y="19.5" width="1" height="1"/><rect class="e" x="1689.5" y="19.5" width="1" height="1"/><rect class="e" x="1729.5" y="19.5" width="1" height="1"/><rect class="e" x="1749.5" y="19.5" width="1" height="1"/><rect class="e" x="1769.5" y="19.5" width="1" height="1"/><rect class="e" x="1789.5" y="19.5" width="1" height="1"/><rect class="e" x="1809.5" y="19.5" width="1" height="1"/><rect class="e" x="1829.5" y="19.5" width="1" height="1"/><rect class="e" x="1849.5" y="19.5" width="1" height="1"/><rect class="e" x="1869.5" y="19.5" width="1" height="1"/><rect class="e" x="1889.5" y="19.5" width="1" height="1"/><rect class="e" x="69.5" y="19.5" width="1" height="1"/><rect class="e" x="129.5" y="19.5" width="1" height="1"/><rect class="e" x="189.5" y="19.5" width="1" height="1"/><rect class="e" x="249.5" y="19.5" width="1" height="1"/><rect class="e" x="309.5" y="19.5" width="1" height="1"/><rect class="e" x="369.5" y="19.5" width="1" height="1"/><rect class="e" x="429.5" y="19.5" width="1" height="1"/><rect class="e" x="489.5" y="19.5" width="1" height="1"/><rect class="e" x="549.5" y="19.5" width="1" height="1"/><rect class="e" x="629.5" y="19.5" width="1" height="1"/><rect class="e" x="709.5" y="19.5" width="1" height="1"/><rect class="e" x="749.5" y="19.5" width="1" height="1"/><rect class="e" x="809.5" y="19.5" width="1" height="1"/><rect class="e" x="889.5" y="19.5" width="1" height="1"/><rect class="e" x="929.5" y="19.5" width="1" height="1"/><rect class="e" x="1009.5" y="19.5" width="1" height="1"/><rect class="e" x="1089.5" y="19.5" width="1" height="1"/><rect class="e" x="1129.5" y="19.5" width="1" height="1"/><rect class="e" x="1149.5" y="19.5" width="1" height="1"/><rect class="e" x="1189.5" y="19.5" width="1" height="1"/><rect class="e" x="1229.5" y="19.5" width="1" height="1"/><rect class="e" x="1269.5" y="19.5" width="1" height="1"/><rect class="e" x="1309.5" y="19.5" width="1" height="1"/><rect class="e" x="1349.5" y="19.5" width="1" height="1"/><rect class="e" x="1389.5" y="19.5" width="1" height="1"/><rect class="e" x="1429.5" y="19.5" width="1" height="1"/><rect class="e" x="1469.5" y="19.5" width="1" height="1"/><rect class="e" x="1509.5" y="19.5" width="1" height="1"/><rect class="e" x="1549.5" y="19.5" width="1" height="1"/><rect class="e" x="1589.5" y="19.5" width="1" height="1"/><rect class="e" x="1629.5" y="19.5" width="1" height="1"/><rect class="e" x="1669.5" y="19.5" width="1" height="1"/><rect class="e" x="1709.5" y="19.5" width="1" height="1"/><rect class="e" x="949.5" y="19.5" width="1" height="1"/></g></svg>