<?xml version="1.0" encoding="UTF-8"?><svg id="b" xmlns="http://www.w3.org/2000/svg" viewBox="0 0 15.5187 15.3547"><g id="c"><path d="M6.75,1.501C3.8505,1.501,1.5,3.8515,1.5,6.751s2.3505,5.25,5.25,5.25,5.25-2.3505,5.25-5.25S9.6495,1.501,6.75,1.501ZM0,6.751C-.0006,3.0231,3.0211,.0006,6.749,0c3.7279-.0006,6.7505,3.0211,6.751,6.749,.0002,1.4914-.4935,2.9409-1.404,4.122l3.184,3.185c.303,.2824,.3198,.757,.0374,1.06-.2824,.303-.757,.3198-1.06,.0374-.0129-.012-.0254-.0245-.0374-.0374l-3.166-3.165c-2.8718,2.377-7.1268,1.976-9.5038-.8958C.5482,9.8447,0,8.3225,0,6.751Z"/></g></svg>